<svg width="50" height="51" viewBox="0 0 50 51" fill="none" xmlns="http://www.w3.org/2000/svg">
<path d="M25.055 50.0147H24.945C11.1905 50.0147 0 38.821 0 25.0624V24.9524C0 11.1938 11.1905 0 24.945 0H25.055C38.8095 0 50 11.1938 50 24.9524V25.0624C50 38.821 38.8095 50.0147 25.055 50.0147ZM24.945 1.69295C12.123 1.69295 1.69245 12.1266 1.69245 24.9524V25.0624C1.69245 37.8882 12.123 48.3218 24.945 48.3218H25.055C37.877 48.3218 48.3076 37.8882 48.3076 25.0624V24.9524C48.3076 12.1266 37.877 1.69295 25.055 1.69295H24.945Z" fill="#DEF6FF"/>
<path d="M28.3639 19.3991V24.6624H34.873L33.8423 31.7525H28.3639V48.0877C27.2655 48.2401 26.1417 48.3197 25.001 48.3197C23.6842 48.3197 22.3912 48.2147 21.132 48.0116V31.7525H15.1289V24.6624H21.132V18.2225C21.132 14.2271 24.3697 10.9868 28.3655 10.9868V10.9902C28.3774 10.9902 28.3876 10.9868 28.3994 10.9868H34.8747V17.1187H30.6436C29.3861 17.1187 28.3655 18.1395 28.3655 19.3974L28.3639 19.3991Z" fill="#DEF6FF"/>
</svg>
