<svg width="50" height="51" viewBox="0 0 50 51" fill="none" xmlns="http://www.w3.org/2000/svg">
<path d="M25.055 50.0147H24.945C11.1905 50.0147 0 38.821 0 25.0624V24.9523C0 11.1937 11.1905 0 24.945 0H25.055C38.8095 0 50 11.1937 50 24.9523V25.0624C50 38.821 38.8095 50.0147 25.055 50.0147ZM24.945 1.69295C12.123 1.69295 1.69245 12.1266 1.69245 24.9523V25.0624C1.69245 37.8882 12.123 48.3218 24.945 48.3218H25.055C37.877 48.3218 48.3076 37.8882 48.3076 25.0624V24.9523C48.3076 12.1266 37.877 1.69295 25.055 1.69295H24.945Z" fill="#DEF6FF"/>
<path d="M32.4745 10.6775H17.5268C13.3972 10.6775 10.0377 14.038 10.0377 18.1688V31.8478C10.0377 35.9786 13.3972 39.3391 17.5268 39.3391H32.4745C36.6041 39.3391 39.9636 35.9786 39.9636 31.8478V18.1688C39.9636 14.038 36.6041 10.6775 32.4745 10.6775ZM12.6796 18.1688C12.6796 15.4956 14.8544 13.3202 17.5268 13.3202H32.4745C35.1469 13.3202 37.3217 15.4956 37.3217 18.1688V31.8478C37.3217 34.5209 35.1469 36.6964 32.4745 36.6964H17.5268C14.8544 36.6964 12.6796 34.5209 12.6796 31.8478V18.1688Z" fill="#DEF6FF"/>
<path d="M25.001 31.9744C28.8412 31.9744 31.9672 28.8492 31.9672 25.0062C31.9672 21.1633 28.8429 18.0381 25.001 18.0381C21.1592 18.0381 18.0349 21.1633 18.0349 25.0062C18.0349 28.8492 21.1592 31.9744 25.001 31.9744ZM25.001 20.6824C27.3857 20.6824 29.3252 22.6226 29.3252 25.0079C29.3252 27.3933 27.3857 29.3334 25.001 29.3334C22.6164 29.3334 20.6768 27.3933 20.6768 25.0079C20.6768 22.6226 22.6164 20.6824 25.001 20.6824Z" fill="#DEF6FF"/>
<path d="M32.6123 19.1639C33.6464 19.1639 34.4892 18.3225 34.4892 17.2864C34.4892 16.2503 33.648 15.4089 32.6123 15.4089C31.5765 15.4089 30.7354 16.2503 30.7354 17.2864C30.7354 18.3225 31.5765 19.1639 32.6123 19.1639Z" fill="#DEF6FF"/>
</svg>
