<svg width="51" height="51" viewBox="0 0 51 51" fill="none" xmlns="http://www.w3.org/2000/svg">
<path d="M25.6429 50.0147H25.5329C11.7784 50.0147 0.587891 38.8209 0.587891 25.0624V24.9523C0.587891 11.1938 11.7784 0 25.5329 0H25.6429C39.3974 0 50.5879 11.1938 50.5879 24.9523V25.0624C50.5879 38.8209 39.3974 50.0147 25.6429 50.0147ZM25.5329 1.69295C12.7109 1.69295 2.28034 12.1266 2.28034 24.9523V25.0624C2.28034 37.8881 12.7109 48.3218 25.5329 48.3218H25.6429C38.4649 48.3218 48.8954 37.8881 48.8954 25.0624V24.9523C48.8954 12.1266 38.4649 1.69295 25.6429 1.69295H25.5329Z" fill="#DEF6FF"/>
<path d="M12.9545 16.9073C12.3182 16.3164 12.0017 15.5851 12.0017 14.7149C12.0017 13.8447 12.3199 13.0812 12.9545 12.4887C13.5909 11.8978 14.41 11.6016 15.4137 11.6016C16.4173 11.6016 17.2043 11.8978 17.839 12.4887C18.4753 13.0795 18.7918 13.8227 18.7918 14.7149C18.7918 15.6071 18.4736 16.3164 17.839 16.9073C17.2026 17.4981 16.3953 17.7944 15.4137 17.7944C14.432 17.7944 13.5909 17.4981 12.9545 16.9073ZM18.257 20.2965V38.4111H12.5348V20.2965H18.257Z" fill="#DEF6FF"/>
<path d="M37.3054 22.0857C38.5528 23.4401 39.1756 25.299 39.1756 27.6657V38.0908H33.7412V28.4004C33.7412 27.2069 33.4315 26.2792 32.8137 25.6189C32.196 24.9587 31.3633 24.6268 30.3208 24.6268C29.2782 24.6268 28.4455 24.957 27.8277 25.6189C27.21 26.2792 26.9003 27.2069 26.9003 28.4004V38.0908H21.4337V20.2455H26.9003V22.6123C27.4537 21.8233 28.2001 21.2003 29.1377 20.7415C30.0754 20.2828 31.1297 20.0542 32.3026 20.0542C34.3911 20.0542 36.0598 20.7314 37.3054 22.0857Z" fill="#DEF6FF"/>
</svg>
