<svg width="51" height="51" viewBox="0 0 51 51" fill="none" xmlns="http://www.w3.org/2000/svg">
<path d="M25.1136 50.0147H25.0036C11.2491 50.0147 0.0585938 38.821 0.0585938 25.0624V24.9523C0.0585938 11.1937 11.2491 0 25.0036 0H25.1136C38.8681 0 50.0586 11.1937 50.0586 24.9523V25.0624C50.0586 38.821 38.8681 50.0147 25.1136 50.0147ZM25.0036 1.69295C12.1816 1.69295 1.75104 12.1266 1.75104 24.9523V25.0624C1.75104 37.8882 12.1816 48.3218 25.0036 48.3218H25.1136C37.9356 48.3218 48.3661 37.8882 48.3661 25.0624V24.9523C48.3661 12.1266 37.9356 1.69295 25.1136 1.69295H25.0036Z" fill="#DEF6FF"/>
<path d="M10.7025 11.7861L21.8421 26.6841L10.6331 38.7971H13.1565L22.971 28.1925L30.9001 38.7971H39.4859L27.72 23.0612L38.154 11.7861H35.6305L26.5928 21.5528L19.2899 11.7861H10.7041H10.7025ZM14.4123 13.645H18.3557L35.7727 36.9383H31.8293L14.4123 13.645Z" fill="#DEF6FF"/>
</svg>
